<?xml version="1.0" standalone="no"?>
<!DOCTYPE svg PUBLIC "-//W3C//DTD SVG 20010904//EN"
 "http://www.w3.org/TR/2001/REC-SVG-20010904/DTD/svg10.dtd">
<svg version="1.0" xmlns="http://www.w3.org/2000/svg"
 width="300.000000pt" height="247.000000pt" viewBox="0 0 300.000000 247.000000"
 preserveAspectRatio="xMidYMid meet">

<g transform="translate(0.000000,247.000000) scale(0.100000,-0.100000)"
fill="#000000" stroke="none">
<path d="M1408 2433 c12 -2 32 -2 45 0 12 2 2 4 -23 4 -25 0 -35 -2 -22 -4z"/>
<path d="M1258 2423 c7 -3 16 -2 19 1 4 3 -2 6 -13 5 -11 0 -14 -3 -6 -6z"/>
<path d="M2330 2136 c0 -2 8 -10 18 -17 15 -13 16 -12 3 4 -13 16 -21 21 -21
13z"/>
<path d="M499 2113 c-13 -16 -12 -17 4 -4 16 13 21 21 13 21 -2 0 -10 -8 -17
-17z"/>
<path d="M2445 2030 c44 -44 82 -80 85 -80 2 0 -31 36 -75 80 -44 44 -82 80
-85 80 -2 0 31 -36 75 -80z"/>
<path d="M405 2028 l-60 -63 63 60 c58 55 67 65 59 65 -1 0 -29 -28 -62 -62z"/>
<path d="M314 1928 l-19 -23 23 19 c21 18 27 26 19 26 -2 0 -12 -10 -23 -22z"/>
<path d="M2540 1926 c0 -2 8 -10 18 -17 15 -13 16 -12 3 4 -13 16 -21 21 -21
13z"/>
<path d="M279 1883 c-13 -16 -12 -17 4 -4 9 7 17 15 17 17 0 8 -8 3 -21 -13z"/>
<path d="M2570 1886 c0 -2 8 -10 18 -17 15 -13 16 -12 3 4 -13 16 -21 21 -21
13z"/>
<path d="M200 1760 c-6 -11 -8 -20 -6 -20 3 0 10 9 16 20 6 11 8 20 6 20 -3 0
-10 -9 -16 -20z"/>
<path d="M370 1527 c0 -2 4 -17 9 -33 6 -16 28 -88 50 -159 39 -126 42 -131
67 -130 25 2 29 9 75 156 27 85 49 157 49 162 0 4 -8 7 -18 7 -15 0 -26 -24
-55 -122 -35 -116 -43 -136 -50 -127 -2 2 -19 58 -38 124 -33 113 -37 120 -62
123 -15 2 -27 1 -27 -1z"/>
<path d="M1630 1368 l0 -163 95 3 c86 3 95 5 95 23 0 17 -7 19 -70 19 l-70 0
0 140 0 140 -25 0 -25 0 0 -162z"/>
<path d="M930 1491 c0 -30 -11 -51 -26 -51 -8 0 -14 -7 -14 -15 0 -8 7 -15 15
-15 12 0 15 -17 15 -89 0 -82 2 -91 22 -105 33 -24 78 -21 78 4 0 13 -7 20
-20 20 -28 0 -40 30 -40 104 0 64 1 66 25 66 16 0 25 6 25 15 0 10 -10 15 -26
15 -24 0 -26 3 -22 35 3 29 1 35 -14 35 -11 0 -18 -7 -18 -19z"/>
<path d="M2296 1468 c-12 -17 -26 -22 -67 -23 -44 -2 -57 -7 -76 -29 -25 -29
-24 -56 3 -86 11 -13 10 -18 -6 -28 -23 -14 -26 -42 -7 -61 10 -10 9 -14 -5
-22 -11 -6 -18 -22 -18 -39 0 -46 35 -63 119 -58 83 4 111 23 111 74 0 42 -23
56 -110 63 -56 5 -65 9 -65 26 0 17 8 21 56 25 86 8 127 60 82 106 -16 15 -16
17 2 30 10 8 22 14 27 14 4 0 8 7 8 15 0 23 -37 18 -54 -7z m-28 -60 c28 -28
7 -78 -32 -78 -23 0 -56 27 -56 46 0 35 62 58 88 32z m30 -203 c17 -6 15 -42
-4 -49 -36 -14 -104 -6 -125 15 -32 32 -11 47 58 42 32 -3 64 -6 71 -8z"/>
<path d="M703 1435 c-71 -31 -86 -152 -24 -207 59 -53 150 -25 171 52 19 72
-7 140 -62 159 -39 14 -46 13 -85 -4z m81 -41 c21 -21 30 -58 22 -96 -8 -43
-23 -58 -57 -58 -36 0 -59 32 -59 85 0 72 53 111 94 69z"/>
<path d="M1150 1430 c-11 -11 -20 -24 -20 -30 0 -5 -5 -10 -11 -10 -7 0 -9 10
-5 25 5 21 3 25 -16 25 -23 0 -23 -2 -23 -114 0 -111 1 -115 23 -119 21 -4 22
-1 22 59 0 77 12 111 45 126 16 7 25 19 25 35 0 28 -14 29 -40 3z"/>
<path d="M1291 1438 c-64 -35 -88 -137 -44 -196 39 -52 123 -54 170 -4 25 27
25 27 4 30 -12 2 -33 -6 -47 -17 -15 -12 -33 -21 -41 -21 -21 0 -63 46 -63 70
0 19 6 20 86 20 l87 0 -6 37 c-12 69 -89 112 -146 81z m79 -38 c37 -37 26 -50
-40 -50 -33 0 -60 4 -60 9 0 18 42 61 61 61 10 0 28 -9 39 -20z"/>
<path d="M1920 1432 c-68 -33 -79 -145 -20 -204 67 -67 180 -6 180 97 0 48
-27 95 -64 110 -45 19 -53 19 -96 -3z m94 -44 c9 -12 16 -41 16 -63 0 -53 -23
-85 -60 -85 -37 0 -60 32 -60 85 0 53 23 85 60 85 18 0 34 -8 44 -22z"/>
<path d="M2442 1435 c-55 -24 -79 -113 -47 -175 30 -58 86 -75 146 -44 79 41
76 186 -5 219 -43 18 -52 18 -94 0z m92 -47 c9 -12 16 -41 16 -63 0 -53 -23
-85 -60 -85 -37 0 -60 32 -60 85 0 53 23 85 60 85 18 0 34 -8 44 -22z"/>
<path d="M2782 1340 c0 -14 2 -19 5 -12 2 6 2 18 0 25 -3 6 -5 1 -5 -13z"/>
<path d="M73 1255 c0 -38 2 -53 4 -32 2 20 2 52 0 70 -2 17 -4 1 -4 -38z"/>
<path d="M2781 1164 c0 -11 3 -14 6 -6 3 7 2 16 -1 19 -3 4 -6 -2 -5 -13z"/>
<path d="M2650 740 c-6 -11 -8 -20 -6 -20 3 0 10 9 16 20 6 11 8 20 6 20 -3 0
-10 -9 -16 -20z"/>
<path d="M2569 613 c-13 -16 -12 -17 4 -4 16 13 21 21 13 21 -2 0 -10 -8 -17
-17z"/>
<path d="M290 606 c0 -2 8 -10 18 -17 15 -13 16 -12 3 4 -13 16 -21 21 -21 13z"/>
<path d="M2529 563 l-24 -28 28 24 c15 14 27 26 27 28 0 8 -8 1 -31 -24z"/>
<path d="M320 567 c0 -2 15 -16 33 -33 l32 -29 -29 33 c-28 30 -36 37 -36 29z"/>
<path d="M2450 475 c-24 -25 -42 -45 -39 -45 3 0 25 20 49 45 24 25 42 45 39
45 -3 0 -25 -20 -49 -45z"/>
<path d="M470 415 c13 -14 26 -25 28 -25 3 0 -5 11 -18 25 -13 14 -26 25 -28
25 -3 0 5 -11 18 -25z"/>
<path d="M2364 398 l-19 -23 23 19 c21 18 27 26 19 26 -2 0 -12 -10 -23 -22z"/>
<path d="M520 376 c0 -2 8 -10 18 -17 15 -13 16 -12 3 4 -13 16 -21 21 -21 13z"/>
<path d="M1308 73 c6 -2 18 -2 25 0 6 3 1 5 -13 5 -14 0 -19 -2 -12 -5z"/>
<path d="M1528 73 c6 -2 18 -2 25 0 6 3 1 5 -13 5 -14 0 -19 -2 -12 -5z"/>
</g>
</svg>
